<svg width="1486" height="671" viewBox="0 0 1486 671" fill="none" xmlns="http://www.w3.org/2000/svg">
<path d="M220.5 443.5C329.852 443.5 418.5 354.852 418.5 245.5C418.5 136.148 329.852 47.5 220.5 47.5C111.148 47.5 22.5 136.148 22.5 245.5C22.5 354.852 111.148 443.5 220.5 443.5Z" stroke="#FFBA49" stroke-width="5"/>
<path d="M1355 668.5C1425.97 668.5 1483.5 610.969 1483.5 540C1483.5 469.031 1425.97 411.5 1355 411.5C1284.03 411.5 1226.5 469.031 1226.5 540C1226.5 610.969 1284.03 668.5 1355 668.5Z" stroke="#FFBA49" stroke-width="5"/>
<path d="M32.5 62.5C49.0685 62.5 62.5 49.0685 62.5 32.5C62.5 15.9315 49.0685 2.5 32.5 2.5C15.9315 2.5 2.5 15.9315 2.5 32.5C2.5 49.0685 15.9315 62.5 32.5 62.5Z" stroke="#FFBA49" stroke-width="5"/>
<path d="M1051.5 449.5C1068.07 449.5 1081.5 436.069 1081.5 419.5C1081.5 402.931 1068.07 389.5 1051.5 389.5C1034.93 389.5 1021.5 402.931 1021.5 419.5C1021.5 436.069 1034.93 449.5 1051.5 449.5Z" stroke="#FFBA49" stroke-width="5"/>
</svg>
